<?xml version="1.0" encoding="utf-8"?>
<!-- Generator: Adobe Illustrator 23.0.2, SVG Export Plug-In . SVG Version: 6.00 Build 0)  -->
<svg version="1.1" id="behance" xmlns="http://www.w3.org/2000/svg" xmlns:xlink="http://www.w3.org/1999/xlink" x="0px" y="0px"
	 viewBox="0 0 320.7 320.7" style="enable-background:new 0 0 320.7 320.7;" xml:space="preserve">
<style type="text/css">
	.st0{fill:none;stroke:#FFFFFF;stroke-width:7;stroke-miterlimit:10;}
	.st1{fill:#FFFFFF;}
</style>
<path class="st0" d="M259.2,11H43C24.6,11,9.7,25.9,9.7,44.4v216.1c0,18.4,14.9,33.3,33.3,33.3h216.1c18.4,0,33.3-14.9,33.3-33.3
	V44.4C292.5,25.9,277.6,11,259.2,11z"/>
<rect x="187.4" y="81.3" class="st1" width="64.9" height="19.4"/>
<path class="st1" d="M125.1,143.9c0,0,24-1.8,24-29.9S129.4,72,104.5,72H58.7h-1.3H22.7v157.4h34.8h1.3h45.8c0,0,50,1.5,50-46.5
	C154.5,182.9,156.7,143.9,125.1,143.9z M58.7,100h39.9h5.9c0,0,11.1,0,11.1,16.4c0,16.3-6.5,18.7-13.9,18.7h-43V100z M102.4,201.5
	H58.7v-42.1h45.8c0,0,16.6-0.2,16.6,21.6C121.1,199.2,108.9,201.3,102.4,201.5z"/>
<path class="st1" d="M221.2,112c-60.5,0-60.4,60.4-60.4,60.4s-4.1,60.2,60.4,60.2c0,0,53.8,3.1,53.8-41.8h-27.7
	c0,0,0.9,16.9-25.2,16.9c0,0-27.7,1.9-27.7-27.3H276C276,180.4,284.9,112.1,221.2,112z M194.1,159.4c0,0,3.4-24.3,27.7-24.3
	c24.3,0,24,24.3,24,24.3H194.1z"/>
</svg>
