<?xml version="1.0" encoding="utf-8"?>
<!-- Generator: Adobe Illustrator 23.0.2, SVG Export Plug-In . SVG Version: 6.00 Build 0)  -->
<svg version="1.1" id="Layer_1" xmlns="http://www.w3.org/2000/svg" xmlns:xlink="http://www.w3.org/1999/xlink" x="0px" y="0px"
	 viewBox="0 0 400 400" style="enable-background:new 0 0 400 400;" xml:space="preserve">
<style type="text/css">
	.st0{fill:#FFFFFF;}
</style>
<title>Glyph</title>
<g>
	<path class="st0" d="M199.9,128.2c-39.4,0-71.4,32-71.4,71.4s32,71.4,71.4,71.4s71.4-32,71.4-71.4S239.3,128.2,199.9,128.2z
		 M199.9,246c-25.6,0-46.4-20.8-46.4-46.4s20.8-46.4,46.4-46.4s46.4,20.8,46.4,46.4C246.3,225.2,225.5,246,199.9,246z"/>
	<ellipse class="st0" cx="274.1" cy="125.6" rx="16.6" ry="16.6"/>
	<path class="st0" d="M200,60.8c-37.7,0-42.5,0-57.3,0.8c-11.5,0.2-23,2.4-33.8,6.5c-18.7,7.2-33.4,22-40.6,40.6
		c-4.1,10.8-6.3,22.2-6.5,33.8C61.1,157.3,61,162,61,199.7s0,42.5,0.8,57.3c0.2,11.5,2.4,23,6.5,33.8c7.2,18.7,22,33.4,40.6,40.6
		c10.8,4.2,22.2,6.6,33.8,7c14.9,0.7,19.6,0.8,57.3,0.8s42.5,0,57.3-0.8c11.5-0.2,23-2.4,33.8-6.5c18.7-7.2,33.4-22,40.6-40.6
		c4.1-10.8,6.3-22.2,6.5-33.8c0.7-14.9,0.8-19.6,0.8-57.3s0-42.5-0.8-57.3c-0.2-11.7-2.4-23.3-6.5-34.2c-7.2-18.7-22-33.4-40.6-40.6
		c-10.8-4.1-22.2-6.3-33.8-6.5C242.4,61,237.7,60.8,200,60.8z M308.1,117.3c3.1,8.3,4.7,17,4.8,25.8c0.7,14.7,0.8,18.8,0.8,56.4
		s0,41.7-0.7,56.4h-0.2c-0.1,8.9-1.7,17.7-4.8,26c-4.7,12.1-14.3,21.7-26.4,26.4c-8.3,3.1-17,4.7-25.8,4.8
		c-14.7,0.7-18.8,0.8-56.4,0.8s-41.5,0-56.4-0.8c-8.8-0.1-17.5-1.7-25.8-4.8c-12.2-4.6-21.8-14.3-26.5-26.4
		c-3.1-8.3-4.7-17-4.8-25.8c-0.7-14.7-0.8-18.8-0.8-56.4s0-41.5,0.8-56.4c0.1-8.9,1.7-17.7,4.8-26c4.7-12.2,14.3-21.8,26.5-26.4
		c8.3-3.1,17-4.7,25.8-4.8c14.7-0.7,18.8-0.8,56.4-0.8s41.5,0,56.4,0.8c8.8,0.1,17.5,1.7,25.8,4.8
		C293.8,95.5,303.4,105.1,308.1,117.3z"/>
</g>
</svg>
