<?xml version="1.0" encoding="utf-8"?>
<!-- Generator: Adobe Illustrator 23.0.2, SVG Export Plug-In . SVG Version: 6.00 Build 0)  -->
<svg version="1.1" id="Layer_1" xmlns="http://www.w3.org/2000/svg" xmlns:xlink="http://www.w3.org/1999/xlink" x="0px" y="0px"
	 viewBox="0 0 504 504" style="enable-background:new 0 0 504 504;" xml:space="preserve">
<style type="text/css">
	.st0{fill:#FFFFFF;}
	.st1{fill:none;stroke:#FFFFFF;stroke-width:7;stroke-miterlimit:10;}
</style>
<g>
	<path class="st0" d="M262.9,226.4v-0.6c-0.1,0.2-0.3,0.4-0.4,0.6H262.9z"/>
	<path class="st0" d="M171.2,378.2h-59V200.7h59V378.2z M141.7,176.4h-0.4c-19.8,0-32.6-13.6-32.6-30.7c0-17.4,13.2-30.7,33.4-30.7
		s32.6,13.3,33,30.7C175.1,162.8,162.2,176.4,141.7,176.4z M384.1,378.2h-59v-95c0-23.9-8.5-40.2-29.9-40.2c-16.3,0-26,11-30.3,21.6
		c-1.6,3.8-1.9,9.1-1.9,14.4v99.2h-59c0,0,0.8-160.9,0-177.5h59v25.1c7.8-12.1,21.9-29.3,53.2-29.3c38.8,0,67.9,25.4,67.9,79.9
		L384.1,378.2L384.1,378.2z"/>
</g>
<path class="st1" d="M411.3,45.3H81.5c-28.1,0-50.9,22.7-50.9,50.9v329.8c0,28.1,22.7,50.9,50.9,50.9h329.8
	c28.1,0,50.9-22.7,50.9-50.9V96.2C462.2,68,439.4,45.3,411.3,45.3z"/>
</svg>
