<?xml version="1.0" encoding="utf-8"?>
<!-- Generator: Adobe Illustrator 23.0.2, SVG Export Plug-In . SVG Version: 6.00 Build 0)  -->
<svg version="1.1" id="Capa_1" xmlns="http://www.w3.org/2000/svg" xmlns:xlink="http://www.w3.org/1999/xlink" x="0px" y="0px"
	 viewBox="0 0 1000 1000" style="enable-background:new 0 0 1000 1000;" xml:space="preserve">
<style type="text/css">
	.st0{fill:#FFFFFF;}
</style>
<path class="st0" d="M984.54,323.26h0.01c0-109.72-11.42-149.5-32.88-189.61c-21.45-40.11-52.93-71.59-93.04-93.04
	S778.73,7.73,669.02,7.73H315.54c-109.72,0-149.5,11.42-189.61,32.88c-40.12,21.45-71.59,52.92-93.05,93.04
	C11.43,173.76,0,213.55,0,323.26v353.48c0,109.72,11.42,149.5,32.88,189.61c21.45,40.11,52.93,71.59,93.04,93.04
	c40.11,21.45,79.9,32.88,189.61,32.88h353.48c109.72,0,149.5-11.42,189.61-32.88c40.11-21.45,71.59-52.93,93.04-93.04
	s32.88-79.9,32.88-189.61V323.26z M258.11,123.96c46.48,0,75,30.61,75.92,70.63c-0.01,39.34-29.68,70.63-76.85,70.63h-0.92
	c-45.55,0-75-31.29-75-70.63C181.27,154.56,211.64,123.96,258.11,123.96z M189.31,729.51V321.13h135.74v408.38H189.31z
	 M814.88,729.51H679.14V510.94c0-54.99-19.55-92.49-68.79-92.49c-37.5,0-59.82,25.3-69.71,49.7c-3.67,8.74-4.37,20.94-4.37,33.13
	V729.5H400.52c0,0,1.84-370.18,0-408.38h135.74v57.74c17.95-27.83,50.38-67.41,122.4-67.41c89.27,0,156.22,58.44,156.22,183.83
	L814.88,729.51z M1771.37,387.55h-1.05c0.25-0.52,0.78-1.05,1.05-1.56V387.55z"/>
</svg>
