<?xml version="1.0" encoding="utf-8"?>
<!-- Generator: Adobe Illustrator 23.0.2, SVG Export Plug-In . SVG Version: 6.00 Build 0)  -->
<svg version="1.1" id="Capa_1" xmlns="http://www.w3.org/2000/svg" xmlns:xlink="http://www.w3.org/1999/xlink" x="0px" y="0px"
	 viewBox="0 0 1000 1000" style="enable-background:new 0 0 1000 1000;" xml:space="preserve">
<style type="text/css">
	.st0{fill:#FFFFFF;}
</style>
<g>
	<path class="st0" d="M689.94,455.99c-64,0-72.82,63.78-72.82,63.78h135.9C753.03,519.77,753.95,456,689.94,455.99z"/>
	<path class="st0" d="M410.96,406.6c0-43.14-29.22-43.14-29.22-43.14H366.2H261.38v92.3h112.94
		C393.8,456,410.96,449.74,410.96,406.6z"/>
	<path class="st0" d="M959.39,134.92c-21.45-40.11-52.93-71.59-93.04-93.04C826.24,20.43,786.46,9.01,676.74,9.01H323.26
		c-109.72,0-149.5,11.42-189.61,32.88c-40.11,21.45-71.59,52.93-93.04,93.04S7.73,214.83,7.73,324.54v353.48
		c0,109.72,11.42,149.5,32.88,189.61c21.45,40.11,52.93,71.59,93.04,93.04s79.9,32.88,189.61,32.88h353.48
		c109.72,0,149.5-11.42,189.61-32.88c40.11-21.45,71.59-52.93,93.04-93.04c21.45-40.11,32.88-79.9,32.88-189.61V324.54
		C992.27,214.82,980.85,175.04,959.39,134.92z M599.5,314.53h170.69v51.02H599.5V314.53z M540.83,453.71v1.48h-0.99
		C540.08,454.7,540.58,454.2,540.83,453.71z M531.3,457.83v1.25h-0.84C530.67,458.67,531.09,458.25,531.3,457.83z M513.23,581.69
		c0,126.16-131.49,122.22-131.49,122.22H261.38h-3.48h-91.37V290.18h91.37h3.48h120.36c65.4,0,117.12,36.18,117.12,110.15
		s-63.08,78.62-63.08,78.62C518.8,478.95,513.23,581.69,513.23,581.69z M832.35,574.96H618.06c0,76.77,72.82,71.89,72.82,71.89
		c68.64,0,66.33-44.52,66.33-44.52h72.82c0,118.04-141.46,109.93-141.46,109.93c-169.76,0-158.86-158.16-158.86-158.16
		s-0.23-158.86,158.86-158.86C855.76,395.23,832.34,574.96,832.35,574.96z"/>
	<path class="st0" d="M381.74,519.77H261.38V630.4h114.79c17.16-0.46,49.16-5.8,49.17-53.81
		C425.35,519.07,381.74,519.77,381.74,519.77z"/>
</g>
</svg>
