<?xml version="1.0" encoding="utf-8"?>
<!-- Generator: Adobe Illustrator 23.0.2, SVG Export Plug-In . SVG Version: 6.00 Build 0)  -->
<svg version="1.1" id="Capa_1" xmlns="http://www.w3.org/2000/svg" xmlns:xlink="http://www.w3.org/1999/xlink" x="0px" y="0px"
	 viewBox="0 0 1000 1000" style="enable-background:new 0 0 1000 1000;" xml:space="preserve">
<style type="text/css">
	.st0{fill:#084AEB;}
</style>
<g>
	<path class="st0" d="M689.9,456c-64,0-72.8,63.8-72.8,63.8H753C753,519.8,754,456,689.9,456z"/>
	<path class="st0" d="M411,406.6c0-43.1-29.2-43.1-29.2-43.1h-15.5H261.4v92.3h112.9C393.8,456,411,449.7,411,406.6z"/>
	<path class="st0" d="M959.4,134.9c-21.5-40.1-52.9-71.6-93-93C826.2,20.4,786.5,9,676.7,9H323.3C213.5,9,173.8,20.4,133.7,41.9
		c-40.1,21.5-71.6,52.9-93,93S7.7,214.8,7.7,324.5V678c0,109.7,11.4,149.5,32.9,189.6c21.5,40.1,52.9,71.6,93,93
		s79.9,32.9,189.6,32.9h353.5c109.7,0,149.5-11.4,189.6-32.9c40.1-21.5,71.6-52.9,93-93s32.9-79.9,32.9-189.6V324.5
		C992.3,214.8,980.8,175,959.4,134.9z M599.5,314.5h170.7v51H599.5V314.5z M540.8,453.7v1.5h-1C540.1,454.7,540.6,454.2,540.8,453.7
		z M531.3,457.8v1.2h-0.8C530.7,458.7,531.1,458.2,531.3,457.8z M513.2,581.7c0,126.2-131.5,122.2-131.5,122.2H261.4h-3.5h-91.4
		V290.2h91.4h3.5h120.4c65.4,0,117.1,36.2,117.1,110.1s-63.1,78.6-63.1,78.6C518.8,479,513.2,581.7,513.2,581.7z M832.3,575H618.1
		c0,76.8,72.8,71.9,72.8,71.9c68.6,0,66.3-44.5,66.3-44.5H830c0,118-141.5,109.9-141.5,109.9c-169.8,0-158.9-158.2-158.9-158.2
		s-0.2-158.9,158.9-158.9C855.8,395.2,832.3,575,832.3,575z"/>
	<path class="st0" d="M381.7,519.8H261.4v110.6h114.8c17.2-0.5,49.2-5.8,49.2-53.8C425.4,519.1,381.7,519.8,381.7,519.8z"/>
</g>
</svg>
