<?xml version="1.0" encoding="utf-8"?>
<!-- Generator: Adobe Illustrator 23.0.2, SVG Export Plug-In . SVG Version: 6.00 Build 0)  -->
<svg version="1.1" id="Capa_1" xmlns="http://www.w3.org/2000/svg" xmlns:xlink="http://www.w3.org/1999/xlink" x="0px" y="0px"
	 viewBox="0 0 1000 1000" style="enable-background:new 0 0 1000 1000;" xml:space="preserve">
<style type="text/css">
	.st0{fill:#084AEB;}
</style>
<g>
	<path class="st0" d="M960,133.6c-21.5-40.1-52.9-71.6-93-93S787.1,7.7,677.4,7.7H323.9c-109.7,0-149.5,11.4-189.6,32.9
		c-40.1,21.5-71.6,52.9-93.1,93C19.8,173.8,8.3,213.5,8.3,323.3v353.5c0,109.7,11.4,149.5,32.9,189.6c21.5,40.1,52.9,71.6,93,93
		s79.9,32.9,189.6,32.9h353.5c109.7,0,149.5-11.4,189.6-32.9c40.1-21.5,71.6-52.9,93-93s32.9-79.9,32.9-189.6V323.3h0
		C992.9,213.5,981.5,173.8,960,133.6z M830.4,637.3c-0.6,27.5-5.8,54.8-15.5,80.6c-17.2,44.5-52.5,79.7-97,97
		c-25.8,9.7-53,14.9-80.6,15.5c-35.2,2-46.7,2-136.7,2s-101.2-0.5-136.7-2c-27.6-0.9-54.9-6.5-80.6-16.6c-44.5-17.2-79.7-52.5-97-97
		c-9.7-25.8-14.9-53-15.5-80.6c-2-35.2-2-46.7-2-136.7s0.4-101.2,2-136.7c0.6-27.5,5.8-54.8,15.5-80.6c17.2-44.5,52.4-79.7,97-97
		c25.8-9.7,53-14.9,80.6-15.5c35.2-2,46.7-2,136.7-2s101.2,0.4,136.7,2c27.5,0.6,54.8,5.8,80.6,15.5c44.5,17.2,79.7,52.4,97,97
		c9.8,26.1,15,53.8,15.5,81.7c2,35.2,2,46.7,2,136.7S832,601.8,830.4,637.3z"/>
	<path class="st0" d="M758.5,302.6c-11.2-29-34.1-51.9-63.1-63.1c-19.7-7.3-40.5-11.2-61.5-11.4c-35.7-2-44.9-2-134.7-2
		s-99.7,0.4-134.7,2c-21,0.3-41.8,4.1-61.5,11.4c-29.1,11.1-52.1,34-63.3,63.1c-7.4,19.9-11.3,41-11.4,62.2c-2,35.7-2,44.9-2,134.7
		s0.4,99.7,2,134.7c0.3,21,4.1,41.8,11.4,61.5c11.2,29.1,34.2,52,63.3,63.1c19.7,7.3,40.5,11.2,61.5,11.5c35.7,2,44.9,2,134.7,2
		s99.7-0.5,134.7-2c21-0.3,41.8-4.1,61.5-11.5c29-11.2,51.9-34.1,63.1-63.1c7.4-19.9,11.3-41,11.4-62.2h0.5
		c1.6-35.3,1.6-44.9,1.6-134.7s-0.5-99.7-2-134.7C769.7,343.1,765.9,322.3,758.5,302.6z M500.4,669.6
		c-94.1,0-170.4-76.3-170.4-170.4s76.3-170.4,170.4-170.4c94.1,0,170.4,76.3,170.4,170.4S594.5,669.6,500.4,669.6z M677.5,362.3
		c-22,0-39.7-17.8-39.7-39.7s17.8-39.7,39.7-39.7c22,0,39.7,17.8,39.7,39.7C717.2,344.5,699.5,362.3,677.5,362.3z"/>
	<path class="st0" d="M422.1,421c-43.2,43.2-43.2,113.3,0,156.5s113.3,43.2,156.5,0s43.2-113.3,0-156.5S465.3,377.8,422.1,421z
		 M541.5,453.9h-1c0.2-0.5,0.7-1,1-1.5V453.9z"/>
</g>
</svg>
