<?xml version="1.0" encoding="utf-8"?>
<!-- Generator: Adobe Illustrator 23.0.2, SVG Export Plug-In . SVG Version: 6.00 Build 0)  -->
<svg version="1.1" id="Capa_1" xmlns="http://www.w3.org/2000/svg" xmlns:xlink="http://www.w3.org/1999/xlink" x="0px" y="0px"
	 viewBox="0 0 1000 1000" style="enable-background:new 0 0 1000 1000;" xml:space="preserve">
<style type="text/css">
	.st0{fill:#FFFFFF;}
</style>
<g>
	<path class="st0" d="M960.01,133.65c-21.45-40.11-52.93-71.59-93.04-93.04S787.07,7.73,677.36,7.73H323.88
		c-109.72,0-149.5,11.42-189.61,32.88c-40.12,21.45-71.59,52.92-93.05,93.04c-21.45,40.11-32.88,79.9-32.88,189.61v353.48
		c0,109.72,11.42,149.5,32.88,189.61c21.45,40.11,52.93,71.59,93.04,93.04c40.11,21.45,79.9,32.88,189.61,32.88h353.48
		c109.72,0,149.5-11.42,189.61-32.88c40.11-21.45,71.59-52.93,93.04-93.04s32.88-79.9,32.88-189.61V323.26h0.01
		C992.89,213.54,981.47,173.76,960.01,133.65z M830.38,637.27c-0.57,27.54-5.81,54.8-15.49,80.59
		c-17.24,44.53-52.45,79.73-96.97,96.97c-25.8,9.68-53.04,14.92-80.59,15.49c-35.24,2.02-46.7,2.02-136.72,2.02
		s-101.24-0.45-136.71-2.02c-27.61-0.92-54.86-6.55-80.59-16.61c-44.52-17.24-79.73-52.45-96.97-96.97
		c-9.69-25.8-14.93-53.04-15.49-80.59c-2.02-35.24-2.02-46.69-2.02-136.71s0.45-101.24,2.02-136.72c0.56-27.54,5.8-54.8,15.49-80.59
		c17.24-44.53,52.45-79.73,96.97-96.97c25.8-9.68,53.04-14.92,80.59-15.49c35.24-2.02,46.69-2.02,136.71-2.02
		s101.24,0.45,136.72,2.02c27.54,0.57,54.8,5.81,80.59,15.49c44.53,17.24,79.73,52.45,96.97,96.97
		c9.8,26.15,15.05,53.79,15.49,81.71c2.02,35.24,2.02,46.69,2.02,136.71S831.95,601.81,830.38,637.27z"/>
	<path class="st0" d="M758.54,302.58c-11.17-29-34.09-51.91-63.08-63.08c-19.7-7.3-40.5-11.18-61.51-11.45
		c-35.69-2.02-44.89-2.02-134.69-2.02c-89.8,0-99.67,0.45-134.69,2.02c-21.01,0.27-41.81,4.14-61.51,11.45
		c-29.09,11.09-52.11,34.03-63.3,63.08c-7.38,19.91-11.26,40.95-11.44,62.19c-2.02,35.69-2.02,44.89-2.02,134.69
		s0.45,99.67,2.02,134.69c0.27,21.01,4.14,41.81,11.44,61.51c11.2,29.06,34.22,51.98,63.3,63.08c19.7,7.3,40.5,11.18,61.51,11.45
		c35.69,2.02,44.89,2.02,134.69,2.02c89.8,0,99.67-0.45,134.69-2.02c21.01-0.27,41.81-4.14,61.51-11.45
		c28.99-11.17,51.91-34.09,63.08-63.08c7.38-19.91,11.26-40.95,11.44-62.19h0.45C772,598.22,772,588.57,772,498.77
		s-0.45-99.67-2.02-134.69C769.73,343.08,765.86,322.26,758.54,302.58z M500.38,669.6c-94.1,0-170.38-76.29-170.38-170.38
		s76.29-170.38,170.38-170.38c94.1,0,170.38,76.29,170.38,170.38S594.49,669.6,500.38,669.6z M677.5,362.29
		c-21.95,0-39.73-17.79-39.73-39.73s17.79-39.73,39.73-39.73c21.95,0,39.73,17.79,39.73,39.73
		C717.24,344.49,699.45,362.29,677.5,362.29z"/>
	<path class="st0" d="M422.13,420.97c-43.22,43.22-43.22,113.29,0,156.51s113.29,43.22,156.51,0s43.22-113.29,0-156.51
		S465.34,377.75,422.13,420.97z M541.45,453.91h-0.99c0.24-0.49,0.74-0.99,0.99-1.48V453.91z"/>
</g>
</svg>
