<?xml version="1.0" encoding="utf-8"?>
<!-- Generator: Adobe Illustrator 23.0.2, SVG Export Plug-In . SVG Version: 6.00 Build 0)  -->
<svg version="1.1" id="Capa_1" xmlns="http://www.w3.org/2000/svg" xmlns:xlink="http://www.w3.org/1999/xlink" x="0px" y="0px"
	 viewBox="0 0 1000 1000" style="enable-background:new 0 0 1000 1000;" xml:space="preserve">
<style type="text/css">
	.st0{fill:#084AEB;}
</style>
<path class="st0" d="M984.5,323.3L984.5,323.3c0-109.7-11.4-149.5-32.9-189.6c-21.5-40.1-52.9-71.6-93-93S778.7,7.7,669,7.7H315.5
	C205.8,7.7,166,19.1,125.9,40.6c-40.1,21.5-71.6,52.9-93.1,93C11.4,173.8,0,213.6,0,323.3v353.5c0,109.7,11.4,149.5,32.9,189.6
	c21.5,40.1,52.9,71.6,93,93s79.9,32.9,189.6,32.9H669c109.7,0,149.5-11.4,189.6-32.9c40.1-21.5,71.6-52.9,93-93
	s32.9-79.9,32.9-189.6V323.3z M258.1,124c46.5,0,75,30.6,75.9,70.6c0,39.3-29.7,70.6-76.9,70.6h-0.9c-45.6,0-75-31.3-75-70.6
	C181.3,154.6,211.6,124,258.1,124z M189.3,729.5V321.1H325v408.4H189.3z M814.9,729.5H679.1V510.9c0-55-19.5-92.5-68.8-92.5
	c-37.5,0-59.8,25.3-69.7,49.7c-3.7,8.7-4.4,20.9-4.4,33.1v228.2H400.5c0,0,1.8-370.2,0-408.4h135.7v57.7
	c18-27.8,50.4-67.4,122.4-67.4c89.3,0,156.2,58.4,156.2,183.8V729.5z M1771.4,387.5h-1.1c0.2-0.5,0.8-1,1.1-1.6V387.5z"/>
</svg>
