<?xml version="1.0" encoding="utf-8"?>
<!-- Generator: Adobe Illustrator 23.0.2, SVG Export Plug-In . SVG Version: 6.00 Build 0)  -->
<svg version="1.1" id="Capa_1" xmlns="http://www.w3.org/2000/svg" xmlns:xlink="http://www.w3.org/1999/xlink" x="0px" y="0px"
	 viewBox="0 0 1114.2 584.5" style="enable-background:new 0 0 1114.2 584.5;" xml:space="preserve">
<style type="text/css">
	.st0{fill:#004DE7;}
</style>
<title>logoppayaz</title>
<path class="st0" d="M668.9,534.8c0.4,0,0.8,0.1,1.1,0.4c0.3,0.3,0.4,0.7,0.4,1.1c0,1,0,1.5,0.1,2.4c0,0.4-0.1,0.7-0.3,1
	c-0.2,0.3-0.6,0.5-1,0.5c-0.4,0-0.8,0.1-1.2,0.2c-0.5,0.2-0.9,0.4-1.3,0.8c-0.5,0.4-0.8,0.9-1.1,1.5c-0.3,0.7-0.4,1.5-0.4,2.3l0.2,6
	l4-0.1c0.4,0,0.8,0.1,1.1,0.3c0.3,0.3,0.5,0.7,0.4,1.2v1.8c0,0.4-0.1,0.9-0.4,1.2c-0.3,0.3-0.7,0.5-1.1,0.5l-4,0.1
	c0.3,10.8,0.4,16.2,0.7,27c0,0.4-0.1,0.9-0.5,1.1c-0.3,0.3-0.7,0.4-1.1,0.4l-2.9,0.1c-0.4,0-0.8-0.1-1.1-0.4
	c-0.2-0.3-0.4-0.7-0.4-1.1c-0.2-10.8-0.3-16.2-0.5-27h-2.8c-0.4,0-0.8-0.1-1.1-0.4c-0.3-0.3-0.5-0.8-0.4-1.2v-1.8
	c0-0.4,0.1-0.9,0.4-1.2c0.3-0.2,0.7-0.4,1.1-0.4h2.8l-0.1-6c0-1.3,0.2-2.6,0.6-3.9c0.4-1.2,1-2.3,1.8-3.2c0.8-0.9,1.9-1.7,3-2.2
	C666.2,535.1,667.5,534.8,668.9,534.8z"/>
<path class="st0" d="M688.4,551.1c0.3-0.5,0.6-1,0.9-1.5c0.4-0.6,1-1.1,1.5-1.5c0.6-0.5,1.3-0.9,2.1-1.2c0.8-0.4,1.7-0.6,2.6-0.6
	c1-0.1,1.9-0.1,2.9-0.1c0.8,0,1.6,0.1,2.5,0.3c0.8,0.2,1.6,0.4,2.3,0.7c0.8,0.4,1.6,0.8,2.4,1.2c0.3,0.2,0.6,0.4,0.8,0.6
	c0.3,0.2,0.5,0.5,0.5,0.9c0,0.2,0,0.4-0.1,0.6l-1.6,2.7c-0.2,0.3-0.5,0.5-0.8,0.5c-0.2,0-0.3,0-0.5-0.1l-0.5-0.3
	c-1.2-0.7-2.4-1.2-3.7-1.5c-1.2-0.3-2.5-0.4-3.7-0.3c-1,0.1-1.9,0.3-2.8,0.7c-0.9,0.4-1.7,1-2.3,1.7c-0.7,0.7-1.2,1.6-1.6,2.6
	c-0.4,1.1-0.5,2.2-0.5,3.3c0.5,8.9,0.7,13.4,1.2,22.3c0,0.8-0.4,1.3-1.3,1.3l-3.2,0.2c-0.9,0-1.4-0.3-1.5-1.2l-1.6-33.6
	c0-0.3,0.1-0.7,0.3-0.9c0.2-0.2,0.6-0.4,0.9-0.4l3.1-0.2c0.4,0,0.7,0.1,1,0.3c0.2,0.2,0.4,0.5,0.4,0.9
	C688.4,549.6,688.4,550.1,688.4,551.1z"/>
<path class="st0" d="M748.3,569.9c0.2-0.2,0.4-0.3,0.5-0.5c0.2-0.2,0.4-0.2,0.6-0.3c0.4,0,0.7,0.1,0.9,0.4l1.2,1.1
	c0.3,0.3,0.5,0.5,0.7,0.7s0.3,0.3,0.4,0.4c0.1,0.1,0.2,0.2,0.3,0.3c0.1,0.1,0.1,0.3,0.2,0.4c0,0.2,0,0.5-0.2,0.7
	c-0.2,0.4-0.5,0.7-0.8,1c-0.8,0.8-1.6,1.5-2.5,2.1c-0.9,0.6-1.8,1.2-2.8,1.7c-1,0.5-2.1,0.9-3.2,1.3c-1.2,0.4-2.4,0.6-3.6,0.7
	c-1.8,0.2-3.6,0.2-5.3-0.1c-1.7-0.3-3.4-0.7-5-1.4c-1.6-0.7-3-1.5-4.4-2.5c-1.3-1-2.5-2.2-3.5-3.5c-1-1.3-1.8-2.7-2.5-4.2
	c-0.6-1.5-1-3.2-1.2-4.8c-0.2-1.7-0.1-3.4,0.2-5c0.6-3.2,2-6.2,4.1-8.7c1.1-1.2,2.3-2.4,3.6-3.3c1.4-1,2.9-1.8,4.5-2.4
	c1.7-0.6,3.4-1.1,5.2-1.2c1.5-0.2,2.9-0.2,4.4,0c1.5,0.1,2.9,0.4,4.3,0.9c1.4,0.5,2.7,1.1,4,1.8c1.3,0.8,2.5,1.7,3.5,2.7
	c1.5,1.5,2.7,3.2,3.6,5.2c1,2.2,1.6,4.6,1.8,7c0.2,0.6-0.2,1.3-0.8,1.5c-0.1,0-0.2,0-0.3,0c-10.5,1.5-21.1,2.7-31.6,3.7
	c0.5,1.5,1.2,2.8,2.2,4c1,1.2,2.1,2.2,3.4,3c1.3,0.8,2.8,1.4,4.3,1.8c1.5,0.4,3.1,0.5,4.7,0.3c1-0.1,2-0.3,3-0.7
	c0.8-0.3,1.6-0.6,2.4-1.1c0.7-0.4,1.3-0.9,1.9-1.4C747.2,571,747.7,570.5,748.3,569.9L748.3,569.9z M729.5,550.9
	c-1.4,1.1-2.6,2.5-3.5,4c-0.9,1.5-1.5,3.3-1.8,5.1c10.8-1,16.2-1.7,26.9-3.1c-0.4-1.5-1.1-2.9-2.1-4.1c-0.9-1.2-2.1-2.2-3.4-2.9
	c-1.3-0.8-2.8-1.3-4.3-1.6c-1.6-0.3-3.2-0.4-4.8-0.2c-1.3,0.1-2.5,0.4-3.7,0.9C731.7,549.5,730.6,550.1,729.5,550.9L729.5,550.9z"/>
<path class="st0" d="M769.5,568.2c-0.1-0.3-0.2-0.5-0.3-0.7c-0.1-0.1-0.1-0.3,0-0.5c0-0.1,0.1-0.3,0.2-0.4c0.1-0.1,0.3-0.3,0.4-0.4
	l2.7-1.7c0.3-0.3,0.8-0.3,1.2-0.1c0.3,0.2,0.6,0.5,0.8,0.8c0.4,0.7,1,1.3,1.7,1.7c0.7,0.4,1.5,0.8,2.3,1c0.8,0.2,1.6,0.4,2.5,0.4
	c0.7,0.1,1.4,0,2.1-0.1c0.8-0.2,1.7-0.4,2.5-0.7c0.9-0.4,1.7-0.8,2.4-1.4c0.7-0.5,1.3-1.2,1.7-2c0.8-1.6,0.5-3.6-0.8-4.9
	c-0.7-0.5-1.4-1-2.3-1.2c-1-0.3-1.9-0.4-2.9-0.5c-1.1-0.1-2.1-0.2-3.2-0.2c-1.7-0.1-3.4-0.4-5-0.9c-1.4-0.4-2.7-0.9-3.9-1.7
	c-1.1-0.7-2-1.5-2.7-2.6c-0.7-1.1-1.2-2.3-1.3-3.6c-0.2-1.4-0.1-2.9,0.3-4.2c0.4-1.3,1.1-2.5,2-3.6c1-1.1,2.2-2,3.5-2.7
	c2.7-1.3,5.7-1.9,8.8-1.8c1,0.1,2.1,0.3,3,0.7c0.9,0.4,1.8,0.9,2.6,1.5c0.8,0.6,1.7,1.4,2.7,2.2c0.3,0.2,0.5,0.6,0.6,0.9
	c0,0.3-0.1,0.7-0.4,0.9l-2,2.1c-0.4,0.3-0.7,0.5-1,0.4c-0.3-0.1-0.6-0.3-0.9-0.5l-1.6-1.2c-0.5-0.4-1.1-0.7-1.7-1
	c-0.6-0.3-1.3-0.5-2-0.5c-0.8-0.1-1.7-0.1-2.5,0.1c-0.8,0.1-1.6,0.4-2.4,0.7c-0.7,0.3-1.4,0.7-2,1.2c-0.5,0.5-1,1.1-1.3,1.8
	c-0.3,0.7-0.4,1.5-0.2,2.3c0.1,0.7,0.5,1.3,1,1.7c0.6,0.5,1.3,0.9,2,1.2c0.8,0.3,1.7,0.6,2.6,0.8c0.9,0.2,1.8,0.3,2.6,0.3
	c1.8,0.1,3.6,0.3,5.4,0.7c1.5,0.3,3,0.8,4.4,1.6c1.2,0.6,2.3,1.5,3.1,2.6c0.9,1.1,1.4,2.4,1.7,3.8c0.3,1.5,0.2,3.1-0.2,4.6
	c-0.5,1.4-1.2,2.7-2.3,3.8c-1.2,1.2-2.5,2.2-4.1,2.9c-1.7,0.8-3.6,1.4-5.5,1.7c-1.3,0.2-2.7,0.3-4,0.2c-1.4-0.1-2.7-0.3-4-0.8
	c-1.3-0.4-2.5-1-3.6-1.8C771.1,570.4,770.2,569.4,769.5,568.2z"/>
<path class="st0" d="M809.4,535.2c0.4-0.7,0.8-1.4,1.4-2.1c0.5-0.7,1.1-1.2,1.8-1.7c0.7-0.5,1.5-1,2.4-1.4c1.1-0.4,2.1-0.8,3.3-1
	c2-0.5,4.1-0.5,6.1-0.2c1.9,0.4,3.7,1.1,5.3,2.2c1.6,1.1,3,2.5,4.1,4.1c1.2,1.7,2,3.6,2.5,5.6c1.8,7.5,2.7,11.3,4.5,18.8
	c0.2,0.5,0.1,1.1-0.2,1.5c-0.3,0.4-0.7,0.7-1.2,0.8l-2.2,0.5c-0.5,0.2-1,0.2-1.5-0.1c-0.3-0.4-0.6-0.8-0.6-1.3
	c-1.8-7.6-2.7-11.3-4.4-18.9c-0.3-1.2-0.7-2.3-1.4-3.3c-0.7-1.1-1.5-2-2.5-2.7c-1-0.8-2.2-1.3-3.4-1.6c-1.4-0.3-2.8-0.3-4.2,0
	c-1.1,0.3-2.2,0.7-3.2,1.3c-1,0.6-1.9,1.4-2.7,2.3c-0.7,1-1.3,2-1.6,3.2c-0.3,1.3-0.4,2.6-0.1,3.9l4.3,20.6c0.2,0.8-0.2,1.3-1.1,1.5
	l-3.1,0.6c-0.9,0.2-1.5-0.1-1.7-1c-2.9-14.5-5.8-29-8.8-43.5c-0.1-0.3,0-0.7,0.2-1c0.2-0.3,0.5-0.5,0.8-0.5l3-0.6
	c0.3-0.1,0.7,0,1,0.2c0.3,0.2,0.5,0.5,0.5,0.8C807.8,527.4,808.3,530,809.4,535.2z"/>
<path class="st0" d="M875.4,519.5c1.1-2.1,2.7-4,4.5-5.5c1.9-1.6,4.1-2.8,6.5-3.5c1.6-0.5,3.3-0.8,5-0.9c1.7-0.1,3.3,0.1,4.9,0.4
	c3.2,0.6,6.2,2.1,8.8,4.2c1.3,1,2.4,2.2,3.3,3.6c1,1.4,1.7,2.9,2.3,4.5c0.6,1.6,0.9,3.2,0.9,4.9c0.1,1.6-0.1,3.3-0.5,4.9
	c-0.4,1.6-1,3.2-1.8,4.6c-0.8,1.5-1.8,2.8-2.9,4.1c-2.4,2.6-5.4,4.5-8.8,5.5c-4.8,1.6-10.1,1.2-14.6-1.1l4.2,13.9
	c0.1,0.3,0,0.7-0.1,1c-0.2,0.3-0.5,0.6-0.9,0.7l-3.1,0.9c-0.3,0.1-0.7,0.1-1-0.1c-0.3-0.1-0.6-0.4-0.6-0.8
	c-4.2-14.3-8.3-28.6-12.5-42.9c-0.2-0.8,0.1-1.3,1-1.6l2.9-0.8c0.6-0.3,1.2,0,1.5,0.5c0,0.1,0.1,0.2,0.1,0.3
	C874.8,517.5,875,518.2,875.4,519.5z M878.9,532.4c0.5,1.7,1.3,3.3,2.5,4.6c1.1,1.3,2.5,2.4,4.1,3.3c1.6,0.8,3.3,1.4,5.1,1.5
	c1.9,0.2,3.7,0,5.5-0.6c1.8-0.5,3.4-1.5,4.8-2.7c2.7-2.4,4.3-5.7,4.7-9.2c0.3-3.5-0.9-7-3.2-9.7c-1.1-1.3-2.5-2.4-4.1-3.1
	c-1.6-0.8-3.2-1.3-4.9-1.4c-1.8-0.2-3.6,0-5.3,0.6c-1.7,0.5-3.3,1.4-4.7,2.6c-1.3,1.1-2.4,2.5-3.2,4c-0.8,1.5-1.3,3.2-1.6,4.9
	C878.2,528.9,878.4,530.7,878.9,532.4z"/>
<path class="st0" d="M952.1,517.3c0.1-0.2,0.2-0.4,0.4-0.6c0.1-0.2,0.3-0.3,0.5-0.4c0.3-0.1,0.7,0,1,0.2l1.4,0.8
	c0.3,0.2,0.7,0.4,0.9,0.5s0.4,0.2,0.5,0.3c0.1,0.1,0.3,0.1,0.4,0.2c0.1,0.1,0.2,0.2,0.2,0.3c0.1,0.2,0.1,0.5,0,0.7
	c-0.1,0.4-0.3,0.8-0.5,1.1c-0.6,0.9-1.2,1.8-1.9,2.6c-0.7,0.8-1.5,1.6-2.3,2.4c-0.9,0.7-1.8,1.4-2.7,2c-1,0.6-2.2,1.2-3.3,1.6
	c-3.3,1.3-6.8,1.7-10.3,1.2c-1.7-0.2-3.3-0.7-4.8-1.3c-1.5-0.6-3-1.5-4.3-2.5c-1.3-1-2.5-2.2-3.4-3.5c-1-1.3-1.8-2.8-2.3-4.4
	c-0.6-1.6-0.9-3.2-1-4.9c-0.4-4.9,1.2-9.8,4.4-13.5c1.1-1.3,2.3-2.4,3.7-3.4c1.4-1,3-1.9,4.7-2.5c1.4-0.5,2.8-0.9,4.2-1.1
	c1.5-0.2,2.9-0.3,4.4-0.2c1.5,0.1,2.9,0.3,4.3,0.7c1.4,0.4,2.8,1,4.1,1.7c1.8,1.1,3.4,2.4,4.7,4.1c1.5,1.9,2.7,4.1,3.6,6.3
	c0.3,0.6,0.1,1.3-0.4,1.6c-0.1,0.1-0.2,0.1-0.3,0.1c-9.7,4-19.6,7.9-29.5,11.5c0.8,1.3,1.9,2.4,3.1,3.3c1.2,0.9,2.6,1.6,4.1,2.1
	c1.5,0.5,3,0.7,4.6,0.7c1.6,0,3.1-0.3,4.6-0.9c1-0.4,1.9-0.8,2.7-1.4c0.7-0.5,1.4-1,2-1.7c0.5-0.6,1-1.2,1.5-1.8
	C951.3,518.6,951.7,518,952.1,517.3L952.1,517.3z M929.2,503.6c-1.1,1.4-1.9,3.1-2.3,4.8c-0.5,1.7-0.6,3.5-0.4,5.3
	c10.1-3.7,15.2-5.7,25.2-9.8c-0.8-1.3-1.8-2.5-3-3.4c-1.2-0.9-2.6-1.5-4-1.9c-1.5-0.4-3-0.6-4.6-0.5c-1.6,0.1-3.1,0.4-4.6,1
	c-1.2,0.5-2.3,1.1-3.4,1.8C931,501.7,930,502.6,929.2,503.6L929.2,503.6z"/>
<path class="st0" d="M968.9,499.8c-1-2.3-1.5-4.8-1.4-7.3c0-2.4,0.5-4.9,1.4-7.1c0.9-2.3,2.3-4.4,4-6.2c1.7-1.9,3.8-3.4,6.2-4.4
	c1.5-0.7,3.2-1.2,4.9-1.5c1.6-0.3,3.3-0.4,5-0.2c1.6,0.1,3.3,0.5,4.8,1c1.6,0.5,3,1.2,4.4,2.1c1.4,0.9,2.6,1.9,3.8,3.1
	c1.1,1.2,2.1,2.6,2.8,4.1c0.7,1.5,1.3,3.1,1.5,4.8c0.3,1.6,0.3,3.3,0.1,4.9c-0.2,1.6-0.6,3.3-1.2,4.8c-0.6,1.6-1.4,3-2.4,4.4
	c-1,1.4-2.2,2.7-3.5,3.8c-2.8,2.3-6.1,3.8-9.6,4.4c-1.7,0.3-3.4,0.4-5.2,0.2c-1.7-0.1-3.3-0.5-4.9-1c-3.1-1.1-5.9-3-8-5.5
	C970.5,502.8,969.6,501.3,968.9,499.8z M974.4,497.4c0.7,1.6,1.7,3.1,3.1,4.2c1.3,1.2,2.8,2.1,4.4,2.7c1.7,0.6,3.4,0.9,5.2,0.8
	c3.7-0.1,7.3-1.7,9.8-4.5c1.2-1.3,2.1-2.8,2.7-4.5c0.6-1.6,0.9-3.4,0.8-5.1c-0.1-3.6-1.7-6.9-4.4-9.2c-2.6-2.3-6.1-3.6-9.6-3.5
	c-1.8,0-3.6,0.4-5.2,1.2c-1.7,0.7-3.1,1.8-4.3,3.2c-1.2,1.3-2.1,2.8-2.7,4.5c-0.6,1.6-0.9,3.4-0.9,5.1
	C973.3,494,973.6,495.8,974.4,497.4L974.4,497.4z"/>
<path class="st0" d="M1015.5,462.7c0.7-2.3,1.9-4.4,3.4-6.2c1.6-1.9,3.5-3.5,5.7-4.7c1.5-0.8,3.1-1.4,4.8-1.8
	c1.6-0.4,3.3-0.6,4.9-0.6c1.6,0,3.3,0.2,4.9,0.6c1.6,0.4,3.1,1,4.5,1.8c1.5,0.8,2.8,1.7,4,2.9c1.2,1.2,2.2,2.5,3.1,3.9
	c0.8,1.4,1.5,3,1.8,4.6c0.4,1.6,0.5,3.2,0.4,4.9c-0.1,1.7-0.4,3.3-0.9,4.9c-0.5,1.6-1.2,3.1-2.1,4.6c-0.9,1.5-2,2.8-3.3,4
	c-1.3,1.2-2.8,2.3-4.3,3.1c-4.5,2.5-9.7,3.1-14.6,1.7l6.7,12.9c0.2,0.3,0.2,0.7,0.1,1c-0.1,0.4-0.4,0.6-0.8,0.8l-2.9,1.5
	c-0.3,0.2-0.7,0.2-1,0.1c-0.3-0.1-0.6-0.3-0.8-0.6c-6.8-13.2-13.5-26.5-20.3-39.8c-0.4-0.7-0.2-1.3,0.7-1.7l2.7-1.4
	c0.5-0.4,1.2-0.3,1.6,0.2c0.1,0.1,0.1,0.2,0.2,0.3L1015.5,462.7z M1021.3,474.7c0.8,1.6,1.9,2.9,3.3,4c1.4,1.1,3,1.9,4.6,2.5
	c1.7,0.5,3.5,0.7,5.3,0.6c3.8-0.3,7.2-2.2,9.5-5.2c1.1-1.4,1.9-3,2.4-4.7c0.5-1.7,0.6-3.5,0.5-5.2c-0.2-1.8-0.7-3.5-1.6-5
	c-0.9-1.5-2-2.9-3.4-3.9c-1.4-1.1-2.9-1.8-4.6-2.3c-1.7-0.5-3.4-0.6-5.2-0.5c-3.6,0.3-7,2.2-9.2,5c-1.1,1.4-1.9,2.9-2.4,4.6
	c-0.5,1.7-0.7,3.4-0.6,5.1C1020,471.4,1020.5,473.1,1021.3,474.7z"/>
<path class="st0" d="M1075.9,463.4c0.4,0.5,0.3,1.2-0.2,1.6c-0.1,0.1-0.2,0.1-0.3,0.1l-2.7,1.6c-0.8,0.5-1.4,0.4-1.9-0.3l-22.7-38.1
	c-0.2-0.3-0.3-0.7-0.1-1c0.1-0.3,0.3-0.6,0.6-0.8l2.6-1.5c0.3-0.2,0.7-0.3,1-0.2c0.3,0.1,0.6,0.3,0.8,0.6L1075.9,463.4z"/>
<path class="st0" d="M1108.5,434.1c0.1-0.2,0.2-0.5,0.3-0.7c0.1-0.2,0.2-0.4,0.4-0.5c0.3-0.2,0.7-0.2,1-0.1l1.5,0.5l1,0.3l0.6,0.2
	c0.1,0,0.3,0.1,0.4,0.2c0.1,0.1,0.2,0.2,0.3,0.3c0.1,0.2,0.2,0.5,0.2,0.7c0,0.4-0.1,0.8-0.3,1.2c-0.4,1-0.8,2-1.3,3
	c-0.5,1-1.1,1.9-1.7,2.8c-0.7,0.9-1.4,1.8-2.3,2.6c-0.9,0.9-1.9,1.6-2.9,2.3c-1.5,1-3.1,1.8-4.8,2.4c-1.6,0.5-3.4,0.9-5.1,1
	c-1.7,0.1-3.4,0-5.1-0.2c-1.6-0.3-3.2-0.8-4.7-1.5c-1.5-0.7-2.9-1.6-4.1-2.7c-1.3-1.1-2.4-2.4-3.2-3.8c-0.9-1.4-1.6-3-2.1-4.6
	c-0.5-1.6-0.7-3.2-0.8-4.8c0-1.6,0.1-3.2,0.5-4.8c0.4-1.6,1-3.1,1.7-4.6c0.8-1.5,1.8-2.9,2.9-4.2c2.2-2.4,4.9-4.3,8-5.5
	c1.4-0.5,2.8-0.9,4.3-1.2c1.5-0.2,2.9-0.3,4.4-0.2c1.5,0.1,3,0.3,4.4,0.8c2,0.6,3.9,1.7,5.5,3c1.9,1.6,3.5,3.4,4.8,5.4
	c0.4,0.5,0.4,1.2-0.1,1.7c-0.1,0.1-0.2,0.1-0.3,0.2c-8.7,6.1-17.6,12-26.6,17.7c1.1,1.1,2.4,2,3.8,2.6c1.4,0.6,2.9,1,4.4,1.2
	c1.6,0.1,3.1,0,4.6-0.3c1.5-0.4,3-1,4.3-1.9c0.9-0.6,1.7-1.2,2.4-1.9c0.6-0.6,1.2-1.3,1.6-2c0.4-0.7,0.8-1.4,1.1-2.1
	c0.3-0.7,0.6-1.4,0.8-2.1L1108.5,434.1z M1083.1,425.7c-0.8,1.6-1.2,3.4-1.3,5.2c-0.1,1.8,0.1,3.6,0.7,5.3c9.2-5.9,13.7-8.9,22.7-15
	c-1-1.1-2.3-2.1-3.7-2.7c-1.4-0.6-2.9-0.9-4.4-1c-1.5-0.1-3.1,0.1-4.6,0.5c-1.5,0.4-3,1.1-4.3,2c-1.1,0.7-2.1,1.6-2.9,2.5
	C1084.4,423.6,1083.7,424.6,1083.1,425.7L1083.1,425.7z"/>
<path class="st0" d="M0,180.2c0-1.7,0.4-3.4,1.2-4.9c0.9-1.6,2.1-3.1,3.7-4.1c23.5-16.1,47.6-31.3,72.3-45.6
	c5.3-3,10.3-4.6,15.1-4.6c4.7,0,9.3,1.4,13.1,4.2c4.4,3.3,8.1,7.5,10.8,12.3c3.5,6,6.2,12.4,8.2,19.1c2.4,7.8,4.1,15.9,5.1,24
	c1.2,8.9,1.8,17.9,1.8,26.9c0.1,13.5-1.2,26.9-3.9,40.2c-2.5,11.4-5.5,23.1-10.9,33.8c-4.7,9.4-10.3,16.6-16.9,21.4
	c-6.2,4.7-14,6.5-21.6,5.1c-11.6-2-23.1-4.1-34.7-6.2v76.8c0,4.6-1.7,5.9-5.2,3.7c-11.2-7.1-22.3-14.5-33.2-22.1
	c-1.4-1-2.6-2.3-3.5-3.8c-0.9-1.5-1.3-3.2-1.3-4.9L0,180.2z M85.2,215.4c0-3.8-0.4-7.6-1.2-11.4c-0.7-3.3-1.9-6.5-3.5-9.4
	c-1.3-2.3-3.3-4.3-5.6-5.6c-2.3-1.2-5-1.3-7.4-0.3c-9.7,3.3-14.6,4.9-24.2,8.4v53.9c9.6-0.7,14.4-1.1,24.2-1.8
	c2.8-0.2,5.4-1.4,7.4-3.3c2.3-2.2,4.3-4.7,5.6-7.6c1.6-3.4,2.8-7,3.5-10.6C84.8,223.6,85.2,219.5,85.2,215.4z"/>
<path class="st0" d="M248.4,62.5c-0.1-3.5,0.4-6.9,1.4-10.2c0.9-2.7,2.3-4.4,4.1-5c26.4-8.4,53-15.9,79.8-22.4
	c5.6-1.4,11.5-0.5,16.4,2.6c5.1,3.1,9.8,8,14.2,14.6c4.8,7.8,8.7,16.1,11.6,24.9c3.7,10.7,6.6,21.6,8.8,32.7
	c2.5,12.4,4.2,25.2,5.5,37.9c1.4,13.6,2,27.2,1.9,40.8c0,20-1.4,40.1-4.1,59.9c-2.5,17.3-5.9,35.2-11.8,51.7
	c-4.4,12.5-9.8,25-18.2,35.6c-7,8.8-14.9,12.9-23.5,12.5c-12.7-0.9-25.4-1.9-38-2.9v148.2c0,8.9-1.9,12.9-5.8,11.8
	c-12.4-3.5-24.7-7.3-36.9-11.3c-1.6-0.5-3-2-4-4.4c-1.1-3.2-1.6-6.6-1.5-10V62.5z M342.5,181.1c0-6.5-0.4-13-1.3-19.5
	c-0.7-5.8-2-11.5-3.9-17c-1.3-4.2-3.4-8.2-6.1-11.7c-2.4-2.9-5.1-4.1-8.1-3.7c-10.7,1.5-16,2.3-26.6,4v104
	c10.6-0.4,15.9-0.5,26.6-0.9c3-0.1,5.8-1.7,8.2-4.9c2.7-3.8,4.8-8,6.1-12.4c1.8-5.7,3-11.6,3.8-17.5
	C342.1,194.8,342.5,188,342.5,181.1z"/>
<path class="st0" d="M468.7,17.1c0.1-1.6,0.4-3.1,0.8-4.7c0.4-1.6,1-3.2,1.7-4.7c0.6-1.3,1.3-2.5,2.2-3.6c0.5-0.7,1.3-1.2,2.2-1.4
	c11-0.8,21.9-1.5,32.9-2.1c1.5-0.1,2.7,1.1,3.7,3.6c0.9,2.1,1.7,4.3,2.3,6.5c1.3,8.1,1.9,12.1,3.2,20.2
	c22.6,161.4,45.1,322.8,67.6,484.2c0.7,4.8,0.6,8.6-0.4,11.6c-0.9,3-2.6,4.6-4.9,4.6c-12.3,0.3-24.6,0.4-36.9,0.3
	c-2,0-3.8-1.3-4.6-3.1c-1.1-2-1.9-5.5-2.5-10.3c-1.7-12.1-3.4-24.3-5-36.4c-1.6-12.1-3.3-24.3-4.9-36.4c-22.8-0.5-45.5-1.5-68.2-3
	c-1.6,11.8-3.3,23.5-4.9,35.3c-1.7,11.7-3.4,23.5-4.9,35.2c-1.1,8.5-3.3,12.6-6.5,12.2c-12.6-1.5-25.2-3.2-37.7-5.2
	c-1.6-0.3-3-1.6-4-4.1s-1.2-5.9-0.6-10.3C423.2,342.9,446.3,180,468.7,17.1z M492.1,167.6c-1.7,13-3.4,26.1-5,39.2
	c-1.7,14.1-3.3,28.2-4.9,42.3c-1.6,14-3.3,28-5,42c-1.6,12.9-3.2,25.8-4.9,38.7c13.2,0.3,26.3,0.5,39.5,0.6
	C505.2,276.2,498.6,221.9,492.1,167.6L492.1,167.6z"/>
<path class="st0" d="M669.2,197.8c10.1-58.8,20.4-117.6,30.9-176.4c0.5-2.7,0.9-4.6,1.3-5.8c0.2-0.9,0.5-1.8,1-2.6
	c0.2-0.4,0.6-0.7,1.1-0.9c0.5-0.1,1-0.3,1.3-0.6c16.4,2.6,32.7,5.6,48.9,9.1c0.6,0.1,1.1,0.7,1.5,1.8c0.4,1.1,0.6,2.4,0.6,3.6
	c-0.1,2.7-0.7,5.4-1.8,7.9c-20.9,92.8-41,185.8-60.2,278.9v192.6c0,10.8-2,16.5-5.8,17c-12.7,1.8-25.5,3.3-38.3,4.6
	c-1.7,0.2-3-1.2-4-4s-1.4-6.8-1.4-12V313.1c-20.5-99.5-40.7-199.1-60.7-298.7c-1.1-2.9-1.6-5.9-1.7-9c0-1.3,0.1-2.5,0.5-3.7
	c0.3-1.1,0.8-1.6,1.4-1.6c16.5,0.5,33,1.4,49.5,2.8c0.4,0.4,0.9,0.7,1.4,1c0.4,0.3,0.8,0.7,1,1.2c0.4,0.9,0.8,1.9,1,2.9
	c0.3,1.3,0.8,3.4,1.4,6.3C648.3,75.4,658.7,136.6,669.2,197.8z"/>
<path class="st0" d="M821.2,49.4c0.1-1.3,0.4-2.6,0.8-3.8c0.4-1.2,1-2.4,1.7-3.5c0.5-0.9,1.3-1.7,2.1-2.3c0.6-0.5,1.4-0.6,2.2-0.5
	c10.6,3.2,21.2,6.6,31.7,10c1.4,0.5,2.6,1.9,3.6,4.2c0.9,2,1.6,4,2.2,6.1c1.2,7,1.8,10.5,3.1,17.4c19.4,122.2,40,244.2,64,365.6
	c0.7,2.8,0.5,5.7-0.4,8.4c-0.7,2.3-2.4,4.2-4.6,5.1c-11.5,4.9-23.2,9.5-34.9,13.9c-1.9,0.7-3.3,0.5-4.3-0.7c-1-1.2-1.8-3.5-2.5-7
	c-1.6-8.9-3.2-17.9-4.8-26.9c-1.6-9-3.1-18.1-4.7-27.4c-21.9,5.1-43.8,9.8-65.8,14.1c-1.6,10.9-3.2,21.8-4.8,32.7
	c-1.7,11-3.3,22-4.8,33c-1.1,8-3.2,12.5-6.4,13.3c-12.3,3.2-24.7,6.1-37.2,8.8c-1.6,0.3-2.9-0.5-4-2.5c-1.1-2-1.2-5.3-0.6-9.8
	C774.4,348.1,796.8,198.6,821.2,49.4z M843.8,183.5c-1.7,10.8-3.3,21.6-4.8,32.5c-1.7,11.9-3.2,23.8-4.8,35.6
	c-1.6,11.9-3.2,24-4.8,35.9c-1.5,11.2-3.1,22.5-4.8,33.7c12.7-0.9,25.4-1.9,38.1-2.9C856.2,273.4,849.9,228.5,843.8,183.5z"/>
<path class="st0" d="M962.7,101.1c0-3.1,0.5-5.4,1.5-6.8s2.4-1.7,4.1-0.9c46.3,22.5,91,48.4,133.5,77.5c1.5,1,2.7,2.3,3.6,3.9
	c1,1.5,1.5,3.3,1.5,5.1v24.8c0,0.7,0,1.3,0,1.8c-0.1,0.7-0.3,1.3-0.6,1.9c-38.5,34.9-61.2,87.9-81.9,134.3
	c26.2-8,52.1-16.7,77.8-26.2c1.1-0.5,2.4-0.5,3.5,0c1,0.5,1.4,1.7,1.4,3.6v30.5c-0.1,1.7-0.6,3.5-1.4,5c-0.8,1.8-2,3.3-3.6,4.5
	c-42.5,29.1-87.1,55-133.5,77.5c-1.4,0.8-3.1,0.3-3.9-1c0,0,0-0.1-0.1-0.1c-1.1-1.5-1.6-4.1-1.6-7.7v-50.6c-0.1-2.2,0.2-4.3,0.8-6.4
	c23.3-60.2,47.7-122.2,84.3-175.8c-26.4-8.4-53.1-16.1-79.9-23.1c-1.9-0.6-3.4-1.9-4.1-3.7c-1-2-1.5-5.1-1.5-9.2L962.7,101.1z"/>
<path class="st0" d="M163.1,182.4c-0.3-0.4-0.2-1.1,0.2-1.4c0.2-0.2,0.6-0.2,0.8-0.2c4.8,1.7,9.3,3.9,13.6,6.7
	c13.7,9.1,23.3,21.4,28.2,37.1c2.5,7.6,2.1,15.9-1.3,23.2c-1.2,2.5-2.8,4.8-4.8,6.6c-3.3,3.1-7.4,3.3-10.8,0.2
	c-2.3-2.1-4.2-4.5-5.6-7.3c-3.2-6.2-4.3-12.9-4.5-19.8c-0.1-8.3-1.4-16.5-4-24.3C172.3,195.7,168.3,188.6,163.1,182.4z"/>
<path class="st0" d="M204.3,175c-2.2,0.6-4.5-0.6-5.1-2.8c-0.4-1.3-0.1-2.6,0.7-3.7c3.1-4.2,5.9-8.5,8.5-12.9c1.9-3.3,5-5.8,8.5-7.1
	c6.2-2.2,10.6,1.6,9.5,8.1c-0.5,3-1.9,5.8-4.1,7.9C217.2,169.3,211,172.9,204.3,175z"/>
<path class="st0" d="M172.2,171.7c-1.3,0.9-3.1,0.6-4-0.7c-0.5-0.7-0.7-1.5-0.5-2.3c1.1-4.5,2-9.1,2.7-13.8
	c1.4-11.9-0.9-23.6-3.7-35.2c-2.2-8.8-5.4-17.5-3.9-26.8c0.8-5.1,2-10.4,4.3-15c6-11.5,17.4-13,26.4-3.7
	c7.7,7.7,11.6,18.4,10.7,29.3c-1.6,25-9.8,47.3-28.5,65C174.7,169.7,173.6,170.7,172.2,171.7L172.2,171.7z"/>
</svg>
