<?xml version="1.0" encoding="utf-8"?>
<!-- Generator: Adobe Illustrator 23.0.2, SVG Export Plug-In . SVG Version: 6.00 Build 0)  -->
<svg version="1.1" id="Capa_1" xmlns="http://www.w3.org/2000/svg" xmlns:xlink="http://www.w3.org/1999/xlink" x="0px" y="0px"
	 viewBox="0 0 1000 1000" style="enable-background:new 0 0 1000 1000;" xml:space="preserve">
<style type="text/css">
	.st0{fill:#FFFFFF;}
</style>
<path class="st0" d="M-622.31-657.8v1.48h-0.99C-623.06-656.81-622.56-657.31-622.31-657.8z"/>
<path class="st0" d="M-631.84-653.68v1.25h-0.84C-632.47-652.84-632.05-653.26-631.84-653.68z"/>
<g>
	<path class="st0" d="M741.42,299.19c-87.79,87.78-175.55,175.58-263.42,263.27c-2.95,2.95-3.14,4.96-1.19,8.58
		c32.32,59.88,64.48,119.85,96.69,179.78c0.77,1.43,1.76,2.74,3.15,4.89C633.37,602.04,689.7,449.42,746.03,296.8
		c-0.41-0.27-0.82-0.53-1.23-0.8C743.67,297.06,742.51,298.09,741.42,299.19z"/>
	<path class="st0" d="M707.55,265.75c1.48-1.48,3.63-2.29,5.47-3.42c-0.55-0.65-1.11-1.3-1.66-1.95
		C558.26,316.9,405.17,373.41,250.92,430.35c2.94,1.72,4.71,2.83,6.55,3.82c59.06,31.72,118.17,63.37,177.15,95.24
		c4.58,2.47,7.16,2.38,11.01-1.48C532.82,440.42,620.17,353.07,707.55,265.75z"/>
	<path class="st0" d="M959.39,140.77c-21.45-40.11-52.93-71.59-93.04-93.04c-40.11-21.45-79.89-32.87-189.61-32.87H323.26
		c-109.72,0-149.5,11.42-189.61,32.88c-40.11,21.45-71.59,52.93-93.04,93.04c-21.45,40.11-32.88,79.9-32.88,189.61v353.48
		c0,109.72,11.42,149.5,32.88,189.61c21.45,40.11,52.93,71.59,93.04,93.04c40.11,21.45,79.9,32.88,189.61,32.88h353.48
		c109.72,0,149.5-11.42,189.61-32.88c40.11-21.45,71.59-52.93,93.04-93.04s32.88-79.9,32.88-189.61V330.39
		C992.27,220.67,980.85,180.89,959.39,140.77z M828.55,210.18c-74.9,203.35-149.87,406.68-224.76,610.04
		c-3.8,10.32-10.64,16.93-21.68,17.6c-11.03,0.67-18.56-5.12-23.74-14.79c-42.55-79.38-85.19-158.72-127.99-237.96
		c-1.83-3.39-5.11-6.62-8.51-8.46c-79.24-42.81-158.6-85.41-237.92-128.07c-11.68-6.28-16.62-15.76-14.07-27.31
		c2.07-9.39,8.34-14.83,17.18-18.07c48.03-17.61,96-35.36,144-53.06c155.14-57.23,310.32-114.36,465.37-171.83
		c18.13-6.72,34.69,5.03,34.36,23.56C830.29,203.7,829.7,207.05,828.55,210.18z"/>
</g>
</svg>
